<?xml version="1.0" encoding="UTF-8" standalone="no"?><svg xmlns="http://www.w3.org/2000/svg" xmlns:xlink="http://www.w3.org/1999/xlink" contentScriptType="application/ecmascript" contentStyleType="text/css" height="182px" preserveAspectRatio="none" style="width:233px;height:182px;background:#FFFFFF;" version="1.1" viewBox="0 0 233 182" width="233px" zoomAndPan="magnify"><defs><filter height="300%" id="ffs239mqijg2p" width="300%" x="-1" y="-1"><feGaussianBlur result="blurOut" stdDeviation="2.0"/><feColorMatrix in="blurOut" result="blurOut2" type="matrix" values="0 0 0 0 0 0 0 0 0 0 0 0 0 0 0 0 0 0 .4 0"/><feOffset dx="4.0" dy="4.0" in="blurOut2" result="blurOut3"/><feBlend in="SourceGraphic" in2="blurOut3" mode="normal"/></filter></defs><g><!--MD5=[e570528f90b5c2cfef501fa4257746df]
cluster util.console--><polygon fill="#FFFFFF" filter="url(#ffs239mqijg2p)" points="16,6,104,6,111,29.6094,216,29.6094,216,175,16,175,16,6" style="stroke:#000000;stroke-width:1.5;"/><line style="stroke:#000000;stroke-width:1.5;" x1="16" x2="111" y1="29.6094" y2="29.6094"/><text fill="#000000" font-family="sans-serif" font-size="14" font-weight="bold" lengthAdjust="spacing" textLength="82" x="20" y="22.5332">util.console</text><!--MD5=[bdf666cab75aa51a7cedeec32dff01af]
class util.console.Output--><rect codeLine="14" fill="#FEFECE" filter="url(#ffs239mqijg2p)" height="117.1797" id="util.console.Output" style="stroke:#A80036;stroke-width:1.5;" width="168" x="32" y="42"/><ellipse cx="93.75" cy="58" fill="#ADD1B2" rx="11" ry="11" style="stroke:#A80036;stroke-width:1.0;"/><path d="M96.5156,53.875 Q96.6719,53.6563 96.8594,53.5469 Q97.0469,53.4375 97.2656,53.4375 Q97.6406,53.4375 97.875,53.7031 Q98.1094,53.9531 98.1094,54.5625 L98.1094,56.0156 Q98.1094,56.625 97.875,56.8906 Q97.6406,57.1563 97.2656,57.1563 Q96.9219,57.1563 96.7188,56.9531 Q96.5156,56.7656 96.4063,56.25 Q96.3594,55.8906 96.1719,55.7031 Q95.8438,55.3281 95.2344,55.1094 Q94.625,54.8906 94,54.8906 Q93.2344,54.8906 92.5938,55.2188 Q91.9688,55.5469 91.4688,56.2969 Q90.9844,57.0469 90.9844,58.0781 L90.9844,59.1719 Q90.9844,60.4063 91.875,61.2344 Q92.7656,62.0469 94.3594,62.0469 Q95.2969,62.0469 95.9531,61.7969 Q96.3438,61.6406 96.7656,61.2031 Q97.0313,60.9375 97.1719,60.8594 Q97.3281,60.7813 97.5313,60.7813 Q97.8594,60.7813 98.1094,61.0469 Q98.375,61.2969 98.375,61.6406 Q98.375,61.9844 98.0313,62.3906 Q97.5313,62.9688 96.7344,63.2969 Q95.6563,63.75 94.3594,63.75 Q92.8438,63.75 91.6406,63.125 Q90.6563,62.625 89.9688,61.5625 Q89.2813,60.4844 89.2813,59.2031 L89.2813,58.0469 Q89.2813,56.7188 89.8906,55.5781 Q90.5156,54.4219 91.6094,53.8125 Q92.7031,53.1875 93.9375,53.1875 Q94.6719,53.1875 95.3125,53.3594 Q95.9688,53.5156 96.5156,53.875 Z " fill="#000000"/><text fill="#000000" font-family="sans-serif" font-size="12" lengthAdjust="spacing" textLength="36" x="114.25" y="62.9102">Output</text><line style="stroke:#A80036;stroke-width:1.5;" x1="33" x2="199" y1="74" y2="74"/><line style="stroke:#A80036;stroke-width:1.5;" x1="33" x2="199" y1="82" y2="82"/><rect fill="#F24D5C" height="6" style="stroke:#C82930;stroke-width:1.0;" width="6" x="40" y="90"/><text fill="#000000" font-family="sans-serif" font-size="11" lengthAdjust="spacing" textLength="87" x="52" y="97.4189">«Create» Output()</text><ellipse cx="43" cy="106.8359" fill="#84BE84" rx="3" ry="3" style="stroke:#038048;stroke-width:1.0;"/><text fill="#000000" font-family="sans-serif" font-size="11" lengthAdjust="spacing" text-decoration="underline" textLength="134" x="52" y="111.2549">void printLine(String,Object)</text><ellipse cx="43" cy="120.6719" fill="#84BE84" rx="3" ry="3" style="stroke:#038048;stroke-width:1.0;"/><text fill="#000000" font-family="sans-serif" font-size="11" lengthAdjust="spacing" text-decoration="underline" textLength="142" x="52" y="125.0908">void printnlLine(String,Object)</text><ellipse cx="43" cy="134.5078" fill="#84BE84" rx="3" ry="3" style="stroke:#038048;stroke-width:1.0;"/><text fill="#000000" font-family="sans-serif" font-size="11" lengthAdjust="spacing" text-decoration="underline" textLength="92" x="52" y="138.9268">void printNotValid()</text><ellipse cx="43" cy="148.3438" fill="#84BE84" rx="3" ry="3" style="stroke:#038048;stroke-width:1.0;"/><text fill="#000000" font-family="sans-serif" font-size="11" lengthAdjust="spacing" text-decoration="underline" textLength="125" x="52" y="152.7627">void printIsPresent(String)</text><!--MD5=[f700ab59e0acbffc9b4bdee961b2b796]
@startuml inline_umlgraph_3.svg
class util.console.Output {
- <<Create>> Output()
+ {static} void printLine(String,Object)
+ {static} void printnlLine(String,Object)
+ {static} void printNotValid()
+ {static} void printIsPresent(String)
}
@enduml

PlantUML version 1.2021.7(Sun May 23 14:40:07 CEST 2021)
(GPL source distribution)
Java Runtime: Java(TM) SE Runtime Environment
JVM: Java HotSpot(TM) 64-Bit Server VM
Default Encoding: Cp1252
Language: it
Country: IT
--></g></svg>