<?xml version="1.0" encoding="UTF-8" standalone="no"?><svg xmlns="http://www.w3.org/2000/svg" xmlns:xlink="http://www.w3.org/1999/xlink" contentScriptType="application/ecmascript" contentStyleType="text/css" height="141px" preserveAspectRatio="none" style="width:185px;height:141px;background:#FFFFFF;" version="1.1" viewBox="0 0 185 141" width="185px" zoomAndPan="magnify"><defs><filter height="300%" id="fxbvndiie6usy" width="300%" x="-1" y="-1"><feGaussianBlur result="blurOut" stdDeviation="2.0"/><feColorMatrix in="blurOut" result="blurOut2" type="matrix" values="0 0 0 0 0 0 0 0 0 0 0 0 0 0 0 0 0 0 .4 0"/><feOffset dx="4.0" dy="4.0" in="blurOut2" result="blurOut3"/><feBlend in="SourceGraphic" in2="blurOut3" mode="normal"/></filter></defs><g><!--MD5=[e570528f90b5c2cfef501fa4257746df]
cluster util.console--><polygon fill="#FFFFFF" filter="url(#fxbvndiie6usy)" points="16,6,104,6,111,29.6094,168,29.6094,168,134,16,134,16,6" style="stroke:#000000;stroke-width:1.5;"/><line style="stroke:#000000;stroke-width:1.5;" x1="16" x2="111" y1="29.6094" y2="29.6094"/><text fill="#000000" font-family="sans-serif" font-size="14" font-weight="bold" lengthAdjust="spacing" textLength="82" x="20" y="22.5332">util.console</text><!--MD5=[ea297e577e499ba5e64ae6b3493dd07a]
class util.console.Console--><rect codeLine="1" fill="#FEFECE" filter="url(#fxbvndiie6usy)" height="75.6719" id="util.console.Console" style="stroke:#A80036;stroke-width:1.5;" width="120" x="32" y="42"/><ellipse cx="65.45" cy="58" fill="#ADD1B2" rx="11" ry="11" style="stroke:#A80036;stroke-width:1.0;"/><path d="M68.2156,53.875 Q68.3719,53.6563 68.5594,53.5469 Q68.7469,53.4375 68.9656,53.4375 Q69.3406,53.4375 69.575,53.7031 Q69.8094,53.9531 69.8094,54.5625 L69.8094,56.0156 Q69.8094,56.625 69.575,56.8906 Q69.3406,57.1563 68.9656,57.1563 Q68.6219,57.1563 68.4188,56.9531 Q68.2156,56.7656 68.1063,56.25 Q68.0594,55.8906 67.8719,55.7031 Q67.5438,55.3281 66.9344,55.1094 Q66.325,54.8906 65.7,54.8906 Q64.9344,54.8906 64.2938,55.2188 Q63.6688,55.5469 63.1688,56.2969 Q62.6844,57.0469 62.6844,58.0781 L62.6844,59.1719 Q62.6844,60.4063 63.575,61.2344 Q64.4656,62.0469 66.0594,62.0469 Q66.9969,62.0469 67.6531,61.7969 Q68.0438,61.6406 68.4656,61.2031 Q68.7313,60.9375 68.8719,60.8594 Q69.0281,60.7813 69.2313,60.7813 Q69.5594,60.7813 69.8094,61.0469 Q70.075,61.2969 70.075,61.6406 Q70.075,61.9844 69.7313,62.3906 Q69.2313,62.9688 68.4344,63.2969 Q67.3563,63.75 66.0594,63.75 Q64.5438,63.75 63.3406,63.125 Q62.3563,62.625 61.6688,61.5625 Q60.9813,60.4844 60.9813,59.2031 L60.9813,58.0469 Q60.9813,56.7188 61.5906,55.5781 Q62.2156,54.4219 63.3094,53.8125 Q64.4031,53.1875 65.6375,53.1875 Q66.3719,53.1875 67.0125,53.3594 Q67.6688,53.5156 68.2156,53.875 Z " fill="#000000"/><text fill="#000000" font-family="sans-serif" font-size="12" lengthAdjust="spacing" textLength="47" x="83.55" y="62.9102">Console</text><line style="stroke:#A80036;stroke-width:1.5;" x1="33" x2="151" y1="74" y2="74"/><line style="stroke:#A80036;stroke-width:1.5;" x1="33" x2="151" y1="82" y2="82"/><rect fill="#F24D5C" height="6" style="stroke:#C82930;stroke-width:1.0;" width="6" x="40" y="90"/><text fill="#000000" font-family="sans-serif" font-size="11" lengthAdjust="spacing" textLength="94" x="52" y="97.4189">«Create» Console()</text><ellipse cx="43" cy="106.8359" fill="#84BE84" rx="3" ry="3" style="stroke:#038048;stroke-width:1.0;"/><text fill="#000000" font-family="sans-serif" font-size="11" lengthAdjust="spacing" text-decoration="underline" textLength="59" x="52" y="111.2549">void clrscr()</text><!--MD5=[a15ef8d4aa73d819f10c066e3be69be5]
@startuml inline_umlgraph_1.svg
class util.console.Console {
- <<Create>> Console()
+ {static} void clrscr()
}
@enduml

PlantUML version 1.2021.7(Sun May 23 14:40:07 CEST 2021)
(GPL source distribution)
Java Runtime: Java(TM) SE Runtime Environment
JVM: Java HotSpot(TM) 64-Bit Server VM
Default Encoding: Cp1252
Language: it
Country: IT
--></g></svg>