<?xml version="1.0" encoding="UTF-8" standalone="no"?><svg xmlns="http://www.w3.org/2000/svg" xmlns:xlink="http://www.w3.org/1999/xlink" contentScriptType="application/ecmascript" contentStyleType="text/css" height="318px" preserveAspectRatio="none" style="width:438px;height:318px;background:#FFFFFF;" version="1.1" viewBox="0 0 438 318" width="438px" zoomAndPan="magnify"><defs><filter height="300%" id="f1lgobyi9c17fc" width="300%" x="-1" y="-1"><feGaussianBlur result="blurOut" stdDeviation="2.0"/><feColorMatrix in="blurOut" result="blurOut2" type="matrix" values="0 0 0 0 0 0 0 0 0 0 0 0 0 0 0 0 0 0 .4 0"/><feOffset dx="4.0" dy="4.0" in="blurOut2" result="blurOut3"/><feBlend in="SourceGraphic" in2="blurOut3" mode="normal"/></filter></defs><g><!--MD5=[e570528f90b5c2cfef501fa4257746df]
cluster util.console--><polygon fill="#FFFFFF" filter="url(#f1lgobyi9c17fc)" points="16,6,104,6,111,29.6094,421,29.6094,421,311,16,311,16,6" style="stroke:#000000;stroke-width:1.5;"/><line style="stroke:#000000;stroke-width:1.5;" x1="16" x2="111" y1="29.6094" y2="29.6094"/><text fill="#000000" font-family="sans-serif" font-size="14" font-weight="bold" lengthAdjust="spacing" textLength="82" x="20" y="22.5332">util.console</text><!--MD5=[ad0cf76380852de57d221bd75bf2db08]
class util.console.Input--><rect codeLine="7" fill="#FEFECE" filter="url(#f1lgobyi9c17fc)" height="89.5078" id="util.console.Input" style="stroke:#A80036;stroke-width:1.5;" width="169" x="32.5" y="55.5"/><ellipse cx="99.25" cy="71.5" fill="#ADD1B2" rx="11" ry="11" style="stroke:#A80036;stroke-width:1.0;"/><path d="M102.0156,67.375 Q102.1719,67.1563 102.3594,67.0469 Q102.5469,66.9375 102.7656,66.9375 Q103.1406,66.9375 103.375,67.2031 Q103.6094,67.4531 103.6094,68.0625 L103.6094,69.5156 Q103.6094,70.125 103.375,70.3906 Q103.1406,70.6563 102.7656,70.6563 Q102.4219,70.6563 102.2188,70.4531 Q102.0156,70.2656 101.9063,69.75 Q101.8594,69.3906 101.6719,69.2031 Q101.3438,68.8281 100.7344,68.6094 Q100.125,68.3906 99.5,68.3906 Q98.7344,68.3906 98.0938,68.7188 Q97.4688,69.0469 96.9688,69.7969 Q96.4844,70.5469 96.4844,71.5781 L96.4844,72.6719 Q96.4844,73.9063 97.375,74.7344 Q98.2656,75.5469 99.8594,75.5469 Q100.7969,75.5469 101.4531,75.2969 Q101.8438,75.1406 102.2656,74.7031 Q102.5313,74.4375 102.6719,74.3594 Q102.8281,74.2813 103.0313,74.2813 Q103.3594,74.2813 103.6094,74.5469 Q103.875,74.7969 103.875,75.1406 Q103.875,75.4844 103.5313,75.8906 Q103.0313,76.4688 102.2344,76.7969 Q101.1563,77.25 99.8594,77.25 Q98.3438,77.25 97.1406,76.625 Q96.1563,76.125 95.4688,75.0625 Q94.7813,73.9844 94.7813,72.7031 L94.7813,71.5469 Q94.7813,70.2188 95.3906,69.0781 Q96.0156,67.9219 97.1094,67.3125 Q98.2031,66.6875 99.4375,66.6875 Q100.1719,66.6875 100.8125,66.8594 Q101.4688,67.0156 102.0156,67.375 Z " fill="#000000"/><text fill="#000000" font-family="sans-serif" font-size="12" lengthAdjust="spacing" textLength="27" x="119.75" y="76.4102">Input</text><line style="stroke:#A80036;stroke-width:1.5;" x1="33.5" x2="200.5" y1="87.5" y2="87.5"/><line style="stroke:#A80036;stroke-width:1.5;" x1="33.5" x2="200.5" y1="95.5" y2="95.5"/><rect fill="#F24D5C" height="6" style="stroke:#C82930;stroke-width:1.0;" width="6" x="40.5" y="103.5"/><text fill="#000000" font-family="sans-serif" font-size="11" lengthAdjust="spacing" textLength="78" x="52.5" y="110.9189">«Create» Input()</text><ellipse cx="43.5" cy="120.3359" fill="#84BE84" rx="3" ry="3" style="stroke:#038048;stroke-width:1.0;"/><text fill="#000000" font-family="sans-serif" font-size="11" lengthAdjust="spacing" text-decoration="underline" textLength="143" x="52.5" y="124.7549">String readLine(String,Object)</text><ellipse cx="43.5" cy="134.1719" fill="#84BE84" rx="3" ry="3" style="stroke:#038048;stroke-width:1.0;"/><text fill="#000000" font-family="sans-serif" font-size="11" lengthAdjust="spacing" text-decoration="underline" textLength="111" x="52.5" y="138.5908">String readPassword()</text><!--MD5=[bdf666cab75aa51a7cedeec32dff01af]
class util.console.Output--><rect codeLine="12" fill="#FEFECE" filter="url(#f1lgobyi9c17fc)" height="117.1797" id="util.console.Output" style="stroke:#A80036;stroke-width:1.5;" width="168" x="237" y="42"/><ellipse cx="298.75" cy="58" fill="#ADD1B2" rx="11" ry="11" style="stroke:#A80036;stroke-width:1.0;"/><path d="M301.5156,53.875 Q301.6719,53.6563 301.8594,53.5469 Q302.0469,53.4375 302.2656,53.4375 Q302.6406,53.4375 302.875,53.7031 Q303.1094,53.9531 303.1094,54.5625 L303.1094,56.0156 Q303.1094,56.625 302.875,56.8906 Q302.6406,57.1563 302.2656,57.1563 Q301.9219,57.1563 301.7188,56.9531 Q301.5156,56.7656 301.4063,56.25 Q301.3594,55.8906 301.1719,55.7031 Q300.8438,55.3281 300.2344,55.1094 Q299.625,54.8906 299,54.8906 Q298.2344,54.8906 297.5938,55.2188 Q296.9688,55.5469 296.4688,56.2969 Q295.9844,57.0469 295.9844,58.0781 L295.9844,59.1719 Q295.9844,60.4063 296.875,61.2344 Q297.7656,62.0469 299.3594,62.0469 Q300.2969,62.0469 300.9531,61.7969 Q301.3438,61.6406 301.7656,61.2031 Q302.0313,60.9375 302.1719,60.8594 Q302.3281,60.7813 302.5313,60.7813 Q302.8594,60.7813 303.1094,61.0469 Q303.375,61.2969 303.375,61.6406 Q303.375,61.9844 303.0313,62.3906 Q302.5313,62.9688 301.7344,63.2969 Q300.6563,63.75 299.3594,63.75 Q297.8438,63.75 296.6406,63.125 Q295.6563,62.625 294.9688,61.5625 Q294.2813,60.4844 294.2813,59.2031 L294.2813,58.0469 Q294.2813,56.7188 294.8906,55.5781 Q295.5156,54.4219 296.6094,53.8125 Q297.7031,53.1875 298.9375,53.1875 Q299.6719,53.1875 300.3125,53.3594 Q300.9688,53.5156 301.5156,53.875 Z " fill="#000000"/><text fill="#000000" font-family="sans-serif" font-size="12" lengthAdjust="spacing" textLength="36" x="319.25" y="62.9102">Output</text><line style="stroke:#A80036;stroke-width:1.5;" x1="238" x2="404" y1="74" y2="74"/><line style="stroke:#A80036;stroke-width:1.5;" x1="238" x2="404" y1="82" y2="82"/><rect fill="#F24D5C" height="6" style="stroke:#C82930;stroke-width:1.0;" width="6" x="245" y="90"/><text fill="#000000" font-family="sans-serif" font-size="11" lengthAdjust="spacing" textLength="87" x="257" y="97.4189">«Create» Output()</text><ellipse cx="248" cy="106.8359" fill="#84BE84" rx="3" ry="3" style="stroke:#038048;stroke-width:1.0;"/><text fill="#000000" font-family="sans-serif" font-size="11" lengthAdjust="spacing" text-decoration="underline" textLength="134" x="257" y="111.2549">void printLine(String,Object)</text><ellipse cx="248" cy="120.6719" fill="#84BE84" rx="3" ry="3" style="stroke:#038048;stroke-width:1.0;"/><text fill="#000000" font-family="sans-serif" font-size="11" lengthAdjust="spacing" text-decoration="underline" textLength="142" x="257" y="125.0908">void printnlLine(String,Object)</text><ellipse cx="248" cy="134.5078" fill="#84BE84" rx="3" ry="3" style="stroke:#038048;stroke-width:1.0;"/><text fill="#000000" font-family="sans-serif" font-size="11" lengthAdjust="spacing" text-decoration="underline" textLength="92" x="257" y="138.9268">void printNotValid()</text><ellipse cx="248" cy="148.3438" fill="#84BE84" rx="3" ry="3" style="stroke:#038048;stroke-width:1.0;"/><text fill="#000000" font-family="sans-serif" font-size="11" lengthAdjust="spacing" text-decoration="underline" textLength="125" x="257" y="152.7627">void printIsPresent(String)</text><!--MD5=[ea297e577e499ba5e64ae6b3493dd07a]
class util.console.Console--><rect codeLine="19" fill="#FEFECE" filter="url(#f1lgobyi9c17fc)" height="75.6719" id="util.console.Console" style="stroke:#A80036;stroke-width:1.5;" width="120" x="57" y="219"/><ellipse cx="90.45" cy="235" fill="#ADD1B2" rx="11" ry="11" style="stroke:#A80036;stroke-width:1.0;"/><path d="M93.2156,230.875 Q93.3719,230.6563 93.5594,230.5469 Q93.7469,230.4375 93.9656,230.4375 Q94.3406,230.4375 94.575,230.7031 Q94.8094,230.9531 94.8094,231.5625 L94.8094,233.0156 Q94.8094,233.625 94.575,233.8906 Q94.3406,234.1563 93.9656,234.1563 Q93.6219,234.1563 93.4188,233.9531 Q93.2156,233.7656 93.1063,233.25 Q93.0594,232.8906 92.8719,232.7031 Q92.5438,232.3281 91.9344,232.1094 Q91.325,231.8906 90.7,231.8906 Q89.9344,231.8906 89.2938,232.2188 Q88.6688,232.5469 88.1688,233.2969 Q87.6844,234.0469 87.6844,235.0781 L87.6844,236.1719 Q87.6844,237.4063 88.575,238.2344 Q89.4656,239.0469 91.0594,239.0469 Q91.9969,239.0469 92.6531,238.7969 Q93.0438,238.6406 93.4656,238.2031 Q93.7313,237.9375 93.8719,237.8594 Q94.0281,237.7813 94.2313,237.7813 Q94.5594,237.7813 94.8094,238.0469 Q95.075,238.2969 95.075,238.6406 Q95.075,238.9844 94.7313,239.3906 Q94.2313,239.9688 93.4344,240.2969 Q92.3563,240.75 91.0594,240.75 Q89.5438,240.75 88.3406,240.125 Q87.3563,239.625 86.6688,238.5625 Q85.9813,237.4844 85.9813,236.2031 L85.9813,235.0469 Q85.9813,233.7188 86.5906,232.5781 Q87.2156,231.4219 88.3094,230.8125 Q89.4031,230.1875 90.6375,230.1875 Q91.3719,230.1875 92.0125,230.3594 Q92.6688,230.5156 93.2156,230.875 Z " fill="#000000"/><text fill="#000000" font-family="sans-serif" font-size="12" lengthAdjust="spacing" textLength="47" x="108.55" y="239.9102">Console</text><line style="stroke:#A80036;stroke-width:1.5;" x1="58" x2="176" y1="251" y2="251"/><line style="stroke:#A80036;stroke-width:1.5;" x1="58" x2="176" y1="259" y2="259"/><rect fill="#F24D5C" height="6" style="stroke:#C82930;stroke-width:1.0;" width="6" x="65" y="267"/><text fill="#000000" font-family="sans-serif" font-size="11" lengthAdjust="spacing" textLength="94" x="77" y="274.4189">«Create» Console()</text><ellipse cx="68" cy="283.8359" fill="#84BE84" rx="3" ry="3" style="stroke:#038048;stroke-width:1.0;"/><text fill="#000000" font-family="sans-serif" font-size="11" lengthAdjust="spacing" text-decoration="underline" textLength="59" x="77" y="288.2549">void clrscr()</text><!--MD5=[02761e6faed0e6f54153bd27cbd12654]
link util.console.Input to util.console.Output--><!--MD5=[f9e4019944d9861b2f565804e788b47a]
link util.console.Input to util.console.Console--><!--MD5=[d5e407c22d8d8f732fc5bac064fc6627]
@startuml inline_umlgraph_5.svg
class util.console.Input {
- <<Create>> Input()
+ {static} String readLine(String,Object)
+ {static} String readPassword()
  }
  class util.console.Output {
- <<Create>> Output()
+ {static} void printLine(String,Object)
+ {static} void printnlLine(String,Object)
+ {static} void printNotValid()
+ {static} void printIsPresent(String)
  }
  class util.console.Console {
- <<Create>> Console()
+ {static} void clrscr()
  }
@enduml

PlantUML version 1.2021.7(Sun May 23 14:40:07 CEST 2021)
(GPL source distribution)
Java Runtime: Java(TM) SE Runtime Environment
JVM: Java HotSpot(TM) 64-Bit Server VM
Default Encoding: Cp1252
Language: it
Country: IT
--></g></svg>