<?xml version="1.0" encoding="UTF-8" standalone="no"?>
<!DOCTYPE svg PUBLIC "-//W3C//DTD SVG 1.1//EN"
 "http://www.w3.org/Graphics/SVG/1.1/DTD/svg11.dtd">
<!-- Generated by graphviz version 2.47.2 (20210527.0053)
 -->
<!-- Title: util.console.Output.printnlLine Pages: 1 -->
<svg width="310pt" height="88pt"
 viewBox="0.00 0.00 310.00 88.00" xmlns="http://www.w3.org/2000/svg" xmlns:xlink="http://www.w3.org/1999/xlink">
<g id="graph0" class="graph" transform="scale(1 1) rotate(0) translate(4 84)">
<title>util.console.Output.printnlLine</title>
<!-- Node1 -->
<g id="node1" class="node">
<title>Node1</title>
<g id="a_node1"><a xlink:title="Stampa una stringa con lineSeparator() finale.">
<polygon fill="#bfbfbf" stroke="black" points="156,-30 156,-49 302,-49 302,-30 156,-30"/>
<text text-anchor="middle" x="229" y="-37" font-family="Helvetica,sans-Serif" font-size="10.00">util.console.Output.printnlLine</text>
</a>
</g>
</g>
<!-- Node2 -->
<g id="node2" class="node">
<title>Node2</title>
<g id="a_node2"><a xlink:href="../../db/d3a/a00040_a26e080b8931f2565df737f4f72f339be.html#a26e080b8931f2565df737f4f72f339be" target="_top" xlink:title="Stampa la stringa &quot;item + &quot; è già presente&quot;.">
<polygon fill="none" stroke="black" points="0,-49.5 0,-79.5 120,-79.5 120,-49.5 0,-49.5"/>
<text text-anchor="start" x="8" y="-67.5" font-family="Helvetica,sans-Serif" font-size="10.00">util.console.Output.print</text>
<text text-anchor="middle" x="60" y="-56.5" font-family="Helvetica,sans-Serif" font-size="10.00">IsPresent</text>
</a>
</g>
</g>
<!-- Node1&#45;&gt;Node2 -->
<g id="edge1" class="edge">
<title>Node1&#45;&gt;Node2</title>
<path fill="none" stroke="midnightblue" d="M154.38,-50.52C142.89,-52.24 131.15,-54 120.04,-55.66"/>
<polygon fill="midnightblue" stroke="midnightblue" points="155.02,-53.96 164.39,-49.02 153.98,-47.04 155.02,-53.96"/>
</g>
<!-- Node3 -->
<g id="node3" class="node">
<title>Node3</title>
<g id="a_node3"><a xlink:href="../../db/d3a/a00040_ab4003bc6dbc23767a8c0e605b85d5aa8.html#ab4003bc6dbc23767a8c0e605b85d5aa8" target="_top" xlink:title="Stampa la stringa &quot;input non valido&quot;.">
<polygon fill="none" stroke="black" points="0,-0.5 0,-30.5 120,-30.5 120,-0.5 0,-0.5"/>
<text text-anchor="start" x="8" y="-18.5" font-family="Helvetica,sans-Serif" font-size="10.00">util.console.Output.print</text>
<text text-anchor="middle" x="60" y="-7.5" font-family="Helvetica,sans-Serif" font-size="10.00">NotValid</text>
</a>
</g>
</g>
<!-- Node1&#45;&gt;Node3 -->
<g id="edge2" class="edge">
<title>Node1&#45;&gt;Node3</title>
<path fill="none" stroke="midnightblue" d="M151.51,-28.51C141.01,-27 130.36,-25.47 120.23,-24.01"/>
<polygon fill="midnightblue" stroke="midnightblue" points="151.12,-31.99 161.52,-29.95 152.12,-25.06 151.12,-31.99"/>
</g>
</g>
</svg>
