<?xml version="1.0" encoding="UTF-8" standalone="no"?>
<!DOCTYPE svg PUBLIC "-//W3C//DTD SVG 1.1//EN"
 "http://www.w3.org/Graphics/SVG/1.1/DTD/svg11.dtd">
<!-- Generated by graphviz version 2.47.2 (20210527.0053)
 -->
<!-- Title: util.console.Output.printNotValid Pages: 1 -->
<svg width="484pt" height="39pt"
 viewBox="0.00 0.00 484.00 39.00" xmlns="http://www.w3.org/2000/svg" xmlns:xlink="http://www.w3.org/1999/xlink">
<g id="graph0" class="graph" transform="scale(1 1) rotate(0) translate(4 35)">
<title>util.console.Output.printNotValid</title>
<polygon fill="white" stroke="transparent" points="-4,4 -4,-35 480,-35 480,4 -4,4"/>
<!-- Node1 -->
<g id="node1" class="node">
<title>Node1</title>
<g id="a_node1"><a xlink:title="Stampa la stringa &quot;input non valido&quot;.">
<polygon fill="#bfbfbf" stroke="black" points="0,-0.5 0,-30.5 120,-30.5 120,-0.5 0,-0.5"/>
<text text-anchor="start" x="8" y="-18.5" font-family="Helvetica,sans-Serif" font-size="10.00">util.console.Output.print</text>
<text text-anchor="middle" x="60" y="-7.5" font-family="Helvetica,sans-Serif" font-size="10.00">NotValid</text>
</a>
</g>
</g>
<!-- Node2 -->
<g id="node2" class="node">
<title>Node2</title>
<g id="a_node2"><a xlink:href="../../de/d8c/a00036_a6b1a76d9376eec2fd317f184d9766404.html#a6b1a76d9376eec2fd317f184d9766404" target="_top" xlink:title="Stampa una stringa con lineSeparator() finale.">
<polygon fill="white" stroke="black" points="156,-6 156,-25 302,-25 302,-6 156,-6"/>
<text text-anchor="middle" x="229" y="-13" font-family="Helvetica,sans-Serif" font-size="10.00">util.console.Output.printnlLine</text>
</a>
</g>
</g>
<!-- Node1&#45;&gt;Node2 -->
<g id="edge1" class="edge">
<title>Node1&#45;&gt;Node2</title>
<path fill="none" stroke="midnightblue" d="M120.35,-15.5C128.64,-15.5 137.27,-15.5 145.89,-15.5"/>
<polygon fill="midnightblue" stroke="midnightblue" points="145.97,-19 155.97,-15.5 145.97,-12 145.97,-19"/>
</g>
<!-- Node3 -->
<g id="node3" class="node">
<title>Node3</title>
<g id="a_node3"><a xlink:href="../../de/d8c/a00036_adb03f39db40726eb19d796e37ffee5a8.html#adb03f39db40726eb19d796e37ffee5a8" target="_top" xlink:title="Stampa una stringa senza lineSeparator() finale.">
<polygon fill="white" stroke="black" points="338,-6 338,-25 476,-25 476,-6 338,-6"/>
<text text-anchor="middle" x="407" y="-13" font-family="Helvetica,sans-Serif" font-size="10.00">util.console.Output.printLine</text>
</a>
</g>
</g>
<!-- Node2&#45;&gt;Node3 -->
<g id="edge2" class="edge">
<title>Node2&#45;&gt;Node3</title>
<path fill="none" stroke="midnightblue" d="M302.09,-15.5C310.62,-15.5 319.36,-15.5 327.96,-15.5"/>
<polygon fill="midnightblue" stroke="midnightblue" points="327.99,-19 337.99,-15.5 327.99,-12 327.99,-19"/>
</g>
</g>
</svg>
